<svg xmlns="http://www.w3.org/2000/svg" width="54.728" height="54.728" viewBox="0 0 54.728 54.728">
    <path id="Logo" d="M29.35,40.826a2.731,2.731,0,1,1,2.714-2.714A2.734,2.734,0,0,1,29.35,40.826Zm33.377-5.462A27.364,27.364,0,1,1,35.364,8,27.359,27.359,0,0,1,62.728,35.364Zm-14.6-4.546a3.693,3.693,0,0,0-2.626,1.1A17.839,17.839,0,0,0,36,28.986l1.92-8.639,6.113,1.379a2.719,2.719,0,0,0,2.714,2.714,2.747,2.747,0,1,0-2.438-3.972l-6.753-1.5a.652.652,0,0,0-.761.485l-2.107,9.533a18,18,0,0,0-9.434,2.957,3.652,3.652,0,1,0-4.248,5.8,7.964,7.964,0,0,0-.188,1.71c0,5.8,6.532,10.5,14.565,10.5,8.066,0,14.6-4.7,14.6-10.5a7.049,7.049,0,0,0-.21-1.743,3.641,3.641,0,0,0-1.644-6.9Zm-7.6,12.821c-2.008,2.008-8.4,1.975-10.328,0a.667.667,0,0,0-.916,0,.647.647,0,0,0,0,.949c2.516,2.516,9.633,2.516,12.159,0a.647.647,0,0,0,0-.949A.667.667,0,0,0,40.528,43.639Zm.85-8.275a2.731,2.731,0,1,0,2.747,2.747A2.727,2.727,0,0,0,41.377,35.364Z" transform="translate(-8 -8)" fill="red" stroke="red" stroke-width="0"/>
</svg>